<svg width="42" height="19" viewBox="0 0 42 19" fill="none" xmlns="http://www.w3.org/2000/svg">
<path d="M29.5 14.0918C30.3786 14.0991 31.2623 13.6957 32.0484 13.2024C32.595 12.8594 33.0971 12.471 33.5182 12.1453C33.7024 12.0028 33.8711 11.8724 34.0212 11.7629C39.0016 8.14476 40.4472 7.06057 41.5413 6.21069L41.5416 6.21052C41.7156 6.07216 41.9756 6.20161 41.9756 6.4209V16.4062C41.9756 17.6867 40.9367 18.7256 39.6562 18.7256H19.3438C18.0633 18.7256 17.0244 17.6867 17.0244 16.4062V6.42578C17.0244 6.20213 17.2793 6.07654 17.4587 6.21559C18.5528 7.06548 20.0033 8.14482 24.9837 11.7629C25.139 11.8763 25.3109 12.0089 25.4968 12.1523C25.9252 12.4829 26.4278 12.8707 26.9724 13.2116C27.7536 13.7006 28.6263 14.0967 29.5 14.0918ZM29.5 14.0918C29.4999 14.0918 29.4999 14.0918 29.4998 14.0918L29.5 14.0674L29.5001 14.0918C29.5001 14.0918 29.5 14.0918 29.5 14.0918ZM33.0696 10.4588L33.084 10.4785L33.0696 10.4588C32.928 10.5616 32.7632 10.689 32.5814 10.8295C32.2336 11.0983 31.8236 11.4151 31.3957 11.6996C31.0704 11.9159 30.736 12.1125 30.4128 12.2538C30.0893 12.3952 29.7787 12.4804 29.5004 12.4756L29.4996 12.4756C29.2213 12.4804 28.9107 12.3952 28.5872 12.2538C28.264 12.1125 27.9296 11.9159 27.6043 11.6996C27.1763 11.4151 26.7664 11.0983 26.4186 10.8295C26.2368 10.689 26.072 10.5616 25.9304 10.4588L25.9304 10.4588C19.9252 6.10086 19.0623 5.42554 17.7789 4.42118C17.6776 4.34188 17.5736 4.26052 17.4643 4.17514C17.1869 3.95507 17.0244 3.62517 17.0244 3.27148V2.34375C17.0244 1.06329 18.0633 0.0244141 19.3438 0.0244141H39.6562C40.9367 0.0244141 41.9756 1.06329 41.9756 2.34375V3.27148C41.9756 3.62537 41.813 3.96 41.5358 4.17505L41.5357 4.17513C41.4519 4.24086 41.3713 4.30419 41.2925 4.36602C39.9678 5.40624 39.1855 6.02049 33.0696 10.4588Z" fill="#004E8A" stroke="#004E8A" stroke-width="0.0488281"/>
<line y1="1.5" x2="15" y2="1.5" stroke="#004E8A"/>
<line x1="5" y1="5.5" x2="15" y2="5.5" stroke="#004E8A"/>
<line x1="8" y1="9.5" x2="15" y2="9.5" stroke="#004E8A"/>
</svg>
