<svg width="120" height="27" viewBox="0 0 120 27" fill="none" xmlns="http://www.w3.org/2000/svg">
<path d="M11.748 21.7484C11.748 20.9644 11.8787 19.9564 12.14 18.7244C12.4013 17.4924 12.7467 16.1764 13.176 14.7764C11.944 14.8697 10.7027 14.9911 9.452 15.1404C8.22 15.2897 7.14667 15.3737 6.232 15.3924C5.392 17.3524 4.72 19.1631 4.216 20.8244C3.73067 22.4671 3.348 24.0724 3.068 25.6404C2.35867 25.4724 1.77067 25.1737 1.304 24.7444C0.837333 24.3337 0.408 23.8111 0.0160001 23.1764C0.165333 22.8777 0.333333 22.4951 0.52 22.0284C0.725333 21.5617 0.958667 21.0017 1.22 20.3484C1.5 19.6764 1.808 18.9017 2.144 18.0244C2.49867 17.1284 2.9 16.0924 3.348 14.9164C2.732 14.6551 2.32133 14.2911 2.116 13.8244C2.20933 13.7497 2.41467 13.6751 2.732 13.6004C3.068 13.5071 3.47867 13.4137 3.964 13.3204L4.328 12.4244C4.72 11.4164 5.03733 10.5671 5.28 9.87641C5.54133 9.18574 5.756 8.51374 5.924 7.86041C6.11067 7.18841 6.27867 6.45107 6.428 5.64841C6.596 4.84574 6.792 3.8284 7.016 2.5964C7.8 2.74574 8.50933 3.09107 9.144 3.6324C9.79733 4.17374 10.3573 4.82707 10.824 5.5924C10.656 5.81641 10.4507 6.15241 10.208 6.6004C9.96533 7.0484 9.69467 7.58974 9.396 8.22441C9.116 8.84041 8.808 9.54041 8.472 10.3244C8.136 11.0897 7.772 11.9017 7.38 12.7604C8.53733 12.6111 9.704 12.4711 10.88 12.3404C12.0747 12.2097 13.1293 12.1164 14.044 12.0604C14.38 11.0897 14.7253 10.1471 15.08 9.23241C15.4533 8.29907 15.8173 7.44974 16.172 6.68441C16.5267 5.91907 16.8627 5.24707 17.18 4.6684C17.516 4.08974 17.8147 3.6604 18.076 3.3804C18.2627 3.39907 18.5053 3.47374 18.804 3.60441C19.1213 3.7164 19.4387 3.8564 19.756 4.0244C20.0733 4.1924 20.3627 4.37907 20.624 4.58441C20.8853 4.77107 21.0627 4.94841 21.156 5.11641C20.82 5.43374 20.484 5.8444 20.148 6.3484C19.812 6.85241 19.476 7.43107 19.14 8.08441C18.8227 8.73774 18.5053 9.44707 18.188 10.2124C17.8707 10.9777 17.572 11.7711 17.292 12.5924C17.6653 12.9284 17.852 13.3484 17.852 13.8524C17.852 14.2071 17.7773 14.5337 17.628 14.8324C17.46 14.7951 17.292 14.7764 17.124 14.7764C16.956 14.7577 16.7787 14.7391 16.592 14.7204C16.2747 15.7284 15.9853 16.7271 15.724 17.7164C15.4627 18.7057 15.2387 19.6484 15.052 20.5444C14.884 21.4404 14.744 22.2617 14.632 23.0084C14.5387 23.7551 14.492 24.3804 14.492 24.8844C14.492 25.0711 14.492 25.2204 14.492 25.3324C14.5107 25.4444 14.5293 25.5377 14.548 25.6124C14.1373 25.5937 13.8387 25.5191 13.652 25.3884C13.4653 25.2764 13.3253 25.1457 13.232 24.9964C13.1387 24.8657 13.0547 24.7257 12.98 24.5764C12.9053 24.4457 12.784 24.3431 12.616 24.2684C12.4853 24.2124 12.364 24.0817 12.252 23.8764C12.14 23.6711 12.0467 23.4377 11.972 23.1764C11.8973 22.9151 11.8413 22.6537 11.804 22.3924C11.7667 22.1311 11.748 21.9164 11.748 21.7484ZM28.669 12.0604C28.8556 12.0604 29.0703 12.0977 29.313 12.1724C29.5743 12.2284 29.8076 12.3124 30.013 12.4244C30.2183 12.5177 30.3863 12.6204 30.517 12.7324C30.6663 12.8444 30.741 12.9471 30.741 13.0404C30.3676 13.8244 30.0223 14.6177 29.705 15.4204C29.3876 16.2044 29.117 16.9604 28.893 17.6884C28.669 18.4164 28.4916 19.0977 28.361 19.7324C28.249 20.3671 28.193 20.9177 28.193 21.3844C28.193 21.9071 28.249 22.3457 28.361 22.7004C28.473 23.0364 28.6596 23.2791 28.921 23.4284C28.697 23.5777 28.4076 23.6991 28.053 23.7924C27.6983 23.8857 27.381 23.9324 27.101 23.9324C26.093 23.9324 25.589 23.2417 25.589 21.8604C25.589 20.7964 25.9436 19.3404 26.653 17.4924C26.2796 18.3511 25.8503 19.1631 25.365 19.9284C24.8796 20.6751 24.385 21.3377 23.881 21.9164C23.377 22.4951 22.8636 22.9711 22.341 23.3444C21.837 23.6991 21.3703 23.9137 20.941 23.9884C20.2503 23.9511 19.6903 23.6244 19.261 23.0084C18.8316 22.3737 18.617 21.5711 18.617 20.6004C18.617 19.5551 18.841 18.4537 19.289 17.2964C19.737 16.1391 20.3063 15.0657 20.997 14.0764C21.7063 13.0871 22.4716 12.2657 23.293 11.6124C24.1143 10.9404 24.9076 10.5857 25.673 10.5484C25.8596 10.6044 26.065 10.7164 26.289 10.8844C26.5316 11.0524 26.7556 11.2484 26.961 11.4724C27.185 11.6964 27.3716 11.9297 27.521 12.1724C27.6703 12.3964 27.7543 12.5924 27.773 12.7604C27.0263 12.8724 26.2516 13.2364 25.449 13.8524C24.665 14.4684 23.9463 15.2151 23.293 16.0924C22.6583 16.9511 22.1356 17.8751 21.725 18.8644C21.3143 19.8537 21.109 20.7777 21.109 21.6364C21.109 21.9911 21.2396 22.2151 21.501 22.3084C22.0423 22.1964 22.6676 21.7391 23.377 20.9364C24.0863 20.1151 24.945 18.8551 25.953 17.1564C26.1396 16.8204 26.345 16.4471 26.569 16.0364C26.8116 15.6257 27.0543 15.1964 27.297 14.7484C27.5396 14.3004 27.773 13.8524 27.997 13.4044C28.2396 12.9377 28.4636 12.4897 28.669 12.0604ZM31.4893 22.8124C31.5826 22.2711 31.7413 21.5617 31.9653 20.6844C32.208 19.7884 32.488 18.8457 32.8053 17.8564C33.1226 16.8484 33.4586 15.8404 33.8133 14.8324C34.168 13.8244 34.5133 12.9191 34.8493 12.1164C35.092 11.5377 35.3066 11.0897 35.4933 10.7724C35.68 10.4364 35.8853 10.1564 36.1093 9.93241C36.3706 9.96974 36.6413 10.0351 36.9213 10.1284C37.2013 10.2217 37.472 10.3337 37.7333 10.4644C37.9946 10.5951 38.228 10.7351 38.4333 10.8844C38.6386 11.0151 38.7973 11.1457 38.9093 11.2764C38.4053 11.8737 37.9573 12.5551 37.5653 13.3204C37.192 14.0857 36.8093 15.0657 36.4173 16.2604C37.4253 15.3644 38.312 14.5057 39.0773 13.6844C39.8613 12.8631 40.5893 11.9484 41.2613 10.9404C41.3733 10.8471 41.5693 10.8004 41.8493 10.8004C42.1106 10.8004 42.3626 10.8471 42.6053 10.9404C42.848 11.0151 43.016 11.1271 43.1093 11.2764C42.7733 12.1724 42.6053 13.0591 42.6053 13.9364C42.6053 14.7577 42.7266 15.3737 42.9693 15.7844C42.9506 15.8964 42.82 16.1111 42.5773 16.4284C42.3533 16.7457 42.1013 17.0444 41.8213 17.3244C41.3173 17.0631 40.8693 16.7084 40.4773 16.2604C40.0853 15.7937 39.796 15.2897 39.6093 14.7484C38.732 15.3644 37.9853 15.9711 37.3693 16.5684C36.7533 17.1471 36.2213 17.8004 35.7733 18.5284C35.344 19.2377 34.9706 20.0591 34.6533 20.9924C34.3546 21.9257 34.0653 23.0364 33.7853 24.3244C33.6173 24.3057 33.412 24.2404 33.1693 24.1284C32.9453 24.0351 32.712 23.9137 32.4693 23.7644C32.2453 23.6151 32.04 23.4564 31.8533 23.2884C31.6666 23.1204 31.5453 22.9617 31.4893 22.8124ZM49.5583 10.2964C49.9316 10.2964 50.3609 10.4084 50.8463 10.6324C51.3316 10.8564 51.7609 11.1457 52.1343 11.5004C52.0409 10.7537 51.9196 10.0537 51.7703 9.40041C51.6396 8.72841 51.4343 8.03774 51.1543 7.32841C50.8929 6.61907 50.5383 5.84441 50.0903 5.00441C49.6423 4.16441 49.0823 3.20307 48.4103 2.1204C48.4663 1.95241 48.5876 1.75641 48.7743 1.53241C48.9796 1.3084 49.2036 1.10307 49.4463 0.916405C49.7076 0.711072 49.9689 0.533739 50.2303 0.384405C50.5103 0.235071 50.7716 0.141738 51.0143 0.104405C51.5369 0.683072 52.0316 1.41107 52.4983 2.28841C52.9649 3.14707 53.3756 4.08041 53.7303 5.0884C54.0849 6.07774 54.3556 7.10441 54.5423 8.1684C54.7476 9.23241 54.8503 10.2497 54.8503 11.2204C54.8503 12.1911 54.7383 13.1897 54.5143 14.2164C54.3089 15.2431 54.0103 16.2511 53.6183 17.2404C53.2449 18.2111 52.8063 19.1351 52.3023 20.0124C51.7983 20.8897 51.2476 21.6737 50.6503 22.3644C50.0716 23.0551 49.4649 23.6151 48.8303 24.0444C48.1956 24.4924 47.5609 24.7724 46.9263 24.8844C45.6383 24.7351 44.6489 24.3151 43.9583 23.6244C43.2863 22.9524 42.9503 22.0191 42.9503 20.8244C42.9503 20.1897 43.0436 19.4991 43.2303 18.7524C43.4356 18.0057 43.6969 17.2684 44.0143 16.5404C44.3503 15.7937 44.7329 15.0751 45.1623 14.3844C45.6103 13.6751 46.0769 13.0404 46.5623 12.4804C47.0663 11.9204 47.5703 11.4444 48.0743 11.0524C48.5783 10.6604 49.0729 10.4084 49.5583 10.2964ZM46.7023 23.7644C47.3556 23.5404 48.0089 23.0457 48.6623 22.2804C49.3156 21.5151 49.9036 20.6191 50.4263 19.5924C50.9489 18.5471 51.3689 17.4364 51.6863 16.2604C52.0223 15.0657 52.1903 13.9177 52.1903 12.8164C52.1903 12.4991 52.1903 12.3031 52.1903 12.2284C52.1903 12.1537 52.1809 12.0791 52.1623 12.0044C51.7143 12.1911 51.2383 12.5084 50.7343 12.9564C50.2303 13.4044 49.7263 13.9271 49.2223 14.5244C48.7183 15.1031 48.2423 15.7377 47.7943 16.4284C47.3463 17.1191 46.9449 17.8097 46.5903 18.5004C46.2356 19.1911 45.9556 19.8537 45.7503 20.4884C45.5449 21.1231 45.4423 21.6831 45.4423 22.1684C45.4423 23.1017 45.8623 23.6337 46.7023 23.7644ZM55.5956 21.4964C55.5956 21.3284 55.6049 21.1231 55.6236 20.8804C55.6609 20.6191 55.7169 20.2831 55.7916 19.8724C55.8662 19.4431 55.9596 18.9297 56.0716 18.3324C56.2022 17.7351 56.3609 17.0164 56.5476 16.1764C56.5849 15.9897 56.6689 15.6911 56.7996 15.2804C56.9302 14.8697 57.0982 14.4404 57.3036 13.9924C57.5276 13.5257 57.7889 13.0777 58.0876 12.6484C58.4049 12.2191 58.7782 11.9017 59.2076 11.6964C59.5249 11.7711 59.9449 11.9671 60.4676 12.2844C60.9902 12.5831 61.4382 13.0031 61.8116 13.5444C61.3822 14.0297 61.0182 14.5151 60.7196 15.0004C60.4396 15.4857 60.1782 15.9897 59.9356 16.5124C59.7116 17.0351 59.4969 17.5764 59.2916 18.1364C59.1049 18.6964 58.8902 19.2844 58.6476 19.9004C58.4422 20.4231 58.2556 20.9644 58.0876 21.5244C57.9196 22.0657 57.8262 22.5417 57.8076 22.9524C57.8076 23.2884 57.7982 23.5217 57.7796 23.6524C57.7796 23.8017 57.7329 23.8764 57.6396 23.8764C57.5649 23.8764 57.4156 23.8297 57.1916 23.7364C56.9676 23.6431 56.7342 23.5031 56.4916 23.3164C56.2676 23.1111 56.0622 22.8591 55.8756 22.5604C55.6889 22.2617 55.5956 21.9071 55.5956 21.4964ZM60.9436 9.3444C60.9436 9.23241 60.9716 9.0644 61.0276 8.8404C60.9342 8.74707 60.8502 8.60707 60.7756 8.4204C60.7196 8.23374 60.6916 8.06574 60.6916 7.9164C60.6916 7.7484 60.7102 7.5244 60.7476 7.24441C60.8036 6.94574 60.8689 6.62841 60.9436 6.29241C61.0182 5.95641 61.1116 5.61107 61.2236 5.25641C61.3356 4.88307 61.4476 4.54707 61.5596 4.24841C61.7836 4.24841 62.0542 4.31374 62.3716 4.4444C62.7076 4.55641 63.0436 4.71507 63.3796 4.9204C63.7156 5.10707 64.0236 5.32174 64.3036 5.5644C64.5836 5.78841 64.7982 6.00307 64.9476 6.20841C64.7422 6.41374 64.4716 6.70307 64.1356 7.07641C63.7996 7.43107 63.4729 7.81374 63.1556 8.22441C62.8382 8.61641 62.5489 8.98974 62.2876 9.3444C62.0262 9.69907 61.8582 9.95107 61.7836 10.1004C61.5596 10.0631 61.3636 9.96974 61.1956 9.82041C61.0276 9.65241 60.9436 9.49374 60.9436 9.3444ZM62.2408 20.7404C62.2408 20.0684 62.4088 19.1351 62.7448 17.9404C63.0994 16.7457 63.5568 15.4391 64.1168 14.0204C64.6768 12.6017 65.3114 11.1364 66.0208 9.62441C66.7301 8.11241 67.4394 6.70307 68.1488 5.39641C68.8768 4.08974 69.5674 2.96041 70.2208 2.00841C70.8928 1.05641 71.4621 0.412406 71.9288 0.0764055C72.1901 0.095072 72.4701 0.207072 72.7688 0.412405C73.0861 0.617739 73.3754 0.869739 73.6368 1.1684C73.8981 1.4484 74.1128 1.74707 74.2808 2.0644C74.4674 2.38174 74.5608 2.67107 74.5608 2.93241C73.7208 3.60441 72.8621 4.47241 71.9848 5.53641C71.1261 6.58174 70.3048 7.73907 69.5208 9.00841C68.7368 10.2591 68.0088 11.5937 67.3368 13.0124C66.6834 14.4124 66.1328 15.7937 65.6848 17.1564C66.2821 16.1297 66.9074 15.1964 67.5608 14.3564C68.2141 13.5164 68.8674 12.7977 69.5208 12.2004C70.1741 11.6031 70.8088 11.1457 71.4248 10.8284C72.0594 10.4924 72.6568 10.3151 73.2168 10.2964C74.0381 10.8937 74.4488 11.6871 74.4488 12.6764C74.4488 13.2737 74.3274 13.8804 74.0848 14.4964C73.8421 15.0937 73.5154 15.6537 73.1048 16.1764C72.7128 16.6804 72.2554 17.1191 71.7328 17.4924C71.2288 17.8471 70.6968 18.0804 70.1368 18.1924C70.3234 18.8457 70.5568 19.5084 70.8368 20.1804C71.1354 20.8524 71.4808 21.5057 71.8728 22.1404C72.2834 22.7751 72.7408 23.3631 73.2448 23.9044C73.7674 24.4457 74.3554 24.9031 75.0088 25.2764C74.9154 25.4631 74.7754 25.6497 74.5888 25.8364C74.4021 26.0231 74.1781 26.1817 73.9168 26.3124C73.6554 26.4617 73.3661 26.5737 73.0488 26.6484C72.7501 26.7417 72.4514 26.7884 72.1528 26.7884C71.6488 26.7884 71.1728 26.5364 70.7248 26.0324C70.2954 25.5284 69.9034 24.8004 69.5488 23.8484C69.2688 23.0831 68.9981 22.1684 68.7368 21.1044C68.4754 20.0404 68.2421 18.9297 68.0368 17.7724C68.2981 17.6044 68.6248 17.3617 69.0168 17.0444C69.4088 16.7084 69.8194 16.3257 70.2488 15.8964C71.8914 14.3097 72.7128 12.9377 72.7128 11.7804C72.7128 11.6311 72.6101 11.5564 72.4048 11.5564C72.0314 11.5751 71.5928 11.7524 71.0888 12.0884C70.5848 12.4244 70.0434 12.8911 69.4648 13.4884C68.9048 14.0857 68.3261 14.7857 67.7288 15.5884C67.1501 16.3911 66.5901 17.2591 66.0488 18.1924C65.8248 18.5657 65.6194 18.9951 65.4328 19.4804C65.2461 19.9657 65.0781 20.4697 64.9288 20.9924C64.7981 21.4964 64.6954 22.0004 64.6208 22.5044C64.5461 23.0084 64.5088 23.4751 64.5088 23.9044C64.5088 24.1657 64.5368 24.3804 64.5928 24.5484C64.0141 24.4924 63.6594 24.3431 63.5288 24.1004C63.3794 23.8764 63.2488 23.6897 63.1368 23.5404C63.0434 23.4097 62.9408 23.2977 62.8288 23.2044C62.6608 23.0737 62.5208 22.7937 62.4088 22.3644C62.2968 21.9351 62.2408 21.3937 62.2408 20.7404ZM87.0741 4.8364C87.3541 4.64974 87.7368 4.4724 88.2221 4.3044C88.7075 4.11774 89.2301 3.95907 89.7901 3.82841C90.3501 3.69774 90.9101 3.59507 91.4701 3.5204C92.0488 3.44574 92.5621 3.4084 93.0101 3.4084C93.7755 3.4084 94.4288 3.5204 94.9701 3.74441C95.5115 3.94974 95.9501 4.22974 96.2861 4.58441C96.6221 4.9204 96.8648 5.30307 97.0141 5.7324C97.1635 6.16174 97.2381 6.6004 97.2381 7.04841C97.2381 7.51507 97.1448 8.00974 96.9581 8.53241C96.7901 9.05507 96.5381 9.57774 96.2021 10.1004C95.8661 10.6231 95.4555 11.1364 94.9701 11.6404C94.5035 12.1257 93.9808 12.5644 93.4021 12.9564C94.6341 13.1057 95.5301 13.4791 96.0901 14.0764C96.6501 14.6737 96.9301 15.4764 96.9301 16.4844C96.9301 17.4364 96.7528 18.2951 96.3981 19.0604C96.0435 19.8071 95.5581 20.4791 94.9421 21.0764C94.3448 21.6551 93.6541 22.1591 92.8701 22.5884C92.0861 22.9991 91.2555 23.3351 90.3781 23.5964C89.5195 23.8764 88.6421 24.0724 87.7461 24.1844C86.8501 24.3151 86.0008 24.3804 85.1981 24.3804C84.5075 24.2311 83.9848 23.8671 83.6301 23.2884C83.2755 22.7097 83.0981 22.0004 83.0981 21.1604C83.0981 21.1044 83.0981 21.0484 83.0981 20.9924C83.1168 20.9364 83.1261 20.8711 83.1261 20.7964C83.7048 20.9831 84.4515 21.0764 85.3661 21.0764C86.3181 21.0764 87.3448 20.9644 88.4461 20.7404C89.5475 20.5164 90.5648 20.1897 91.4981 19.7604C92.4315 19.3311 93.2061 18.7991 93.8221 18.1644C94.4381 17.5297 94.7461 16.7924 94.7461 15.9524C94.7461 15.3364 94.5408 14.8324 94.1301 14.4404C93.7381 14.0297 93.1128 13.7684 92.2541 13.6564C91.6941 13.9924 91.1528 14.2351 90.6301 14.3844C90.1261 14.5151 89.7435 14.5804 89.4821 14.5804C89.0528 14.5804 88.6888 14.3937 88.3901 14.0204C88.0915 13.6471 87.9421 13.0777 87.9421 12.3124C88.7821 12.3124 89.6688 12.2191 90.6021 12.0324C91.5541 11.8457 92.4221 11.5284 93.2061 11.0804C93.9901 10.6137 94.6435 10.0071 95.1661 9.26041C95.7075 8.49507 95.9968 7.53374 96.0341 6.3764C95.9408 6.00307 95.7168 5.73241 95.3621 5.5644C95.0261 5.3964 94.6155 5.3124 94.1301 5.3124C93.6821 5.3124 93.1875 5.37774 92.6461 5.50841C92.1235 5.63907 91.5915 5.82574 91.0501 6.06841C90.5275 6.29241 90.0141 6.57241 89.5101 6.90841C89.0248 7.22574 88.6048 7.57107 88.2501 7.94441C87.8768 7.72041 87.5781 7.38441 87.3541 6.93641C87.1488 6.46974 87.0461 5.93774 87.0461 5.3404C87.0461 5.24707 87.0461 5.16307 87.0461 5.0884C87.0461 5.01374 87.0555 4.92974 87.0741 4.8364ZM100.813 21.9164C101.093 21.3004 101.429 20.5071 101.821 19.5364C102.213 18.5657 102.624 17.5204 103.053 16.4004C103.483 15.2617 103.921 14.1044 104.369 12.9284C104.817 11.7337 105.237 10.6044 105.629 9.54041C106.021 8.47641 106.357 7.52441 106.637 6.68441C106.936 5.84441 107.151 5.20041 107.281 4.75241C106.105 5.23774 105.097 5.97507 104.257 6.96441C103.417 7.95374 102.783 9.19507 102.353 10.6884C101.924 10.5391 101.532 10.2777 101.177 9.9044C100.823 9.51241 100.589 9.02707 100.477 8.4484C100.664 7.58974 101.009 6.80574 101.513 6.0964C102.036 5.38707 102.689 4.78041 103.473 4.2764C104.257 3.7724 105.163 3.38974 106.189 3.1284C107.216 2.8484 108.317 2.70841 109.493 2.70841C110.987 2.70841 112.359 2.9324 113.609 3.3804C114.86 3.80974 115.933 4.4164 116.829 5.2004C117.725 5.9844 118.425 6.92707 118.929 8.0284C119.433 9.12974 119.685 10.3524 119.685 11.6964C119.685 13.5257 119.349 15.2711 118.677 16.9324C118.005 18.5937 117.091 20.0591 115.933 21.3284C114.795 22.5977 113.469 23.6057 111.957 24.3524C110.445 25.1177 108.859 25.5004 107.197 25.5004C105.667 25.5004 104.351 25.1924 103.249 24.5764C102.167 23.9791 101.355 23.0924 100.813 21.9164ZM110.697 4.10841C109.764 4.10841 108.877 4.23907 108.037 4.50041C108.859 4.79907 109.54 5.1164 110.081 5.4524C110.623 5.76974 110.996 6.02174 111.201 6.20841C111.052 6.41374 110.828 6.77774 110.529 7.30041C110.249 7.82307 109.913 8.45774 109.521 9.2044C109.148 9.95107 108.747 10.7724 108.317 11.6684C107.888 12.5457 107.468 13.4511 107.057 14.3844C105.993 16.7551 105.219 18.6217 104.733 19.9844C104.267 21.3471 104.033 22.2897 104.033 22.8124C104.295 22.9057 104.612 22.9711 104.985 23.0084C105.359 23.0457 105.76 23.0644 106.189 23.0644C107.701 23.0644 109.129 22.7191 110.473 22.0284C111.836 21.3191 113.021 20.3764 114.029 19.2004C115.056 18.0244 115.859 16.6617 116.437 15.1124C117.035 13.5444 117.333 11.9017 117.333 10.1844C117.333 8.26174 116.736 6.76841 115.541 5.7044C114.347 4.64041 112.732 4.10841 110.697 4.10841Z" fill="white"/>
</svg>
